HIERARCHY
ROOT Hips
{
	OFFSET 0.00 0.00 0.00
	CHANNELS 6 Xposition Yposition Zposition Xrotation Yrotation Zrotation
	JOINT Spine
	{
		OFFSET 0.00000 2.10617 3.15926
		CHANNELS 3 Xrotation Yrotation Zrotation
		JOINT Spine1
		{
			OFFSET 0.00000 0.73147 4.14835
			CHANNELS 3 Xrotation Yrotation Zrotation
			JOINT Spine2
			{
				OFFSET 0.00000 0.36713 4.19631
				CHANNELS 3 Xrotation Yrotation Zrotation
				JOINT Spine3
				{
					OFFSET 0.00000 0.00000 4.21234
					CHANNELS 3 Xrotation Yrotation Zrotation
					JOINT Neck
					{
						OFFSET 0.00000 -1.57962 11.05740
						CHANNELS 3 Xrotation Yrotation Zrotation
						JOINT Head
						{
							OFFSET 0.00000 -1.00576 5.70398
							CHANNELS 3 Xrotation Yrotation Zrotation
							End Site
							{
								OFFSET 0.00000 0.00001 6.81873
							}
						}
					}
					JOINT RightShoulder
					{
						OFFSET -1.28113 -2.13521 6.91810
						CHANNELS 3 Xrotation Yrotation Zrotation
						JOINT RightArm
						{
							OFFSET -6.36294 0.00000 0.00000
							CHANNELS 3 Xrotation Yrotation Zrotation
							JOINT RightForeArm
							{
								OFFSET -10.12221 0.00000 0.00000
								CHANNELS 3 Xrotation Yrotation Zrotation
								JOINT RightHand
								{
									OFFSET -10.76713 0.00000 0.00000
									CHANNELS 3 Xrotation Yrotation Zrotation
									JOINT RightHandEnd
									{
										OFFSET -2.78915 0.00000 0.00000
										CHANNELS 3 Xrotation Yrotation Zrotation
										End Site
										{
											OFFSET -2.78915 0.00000 0.00000
										}
									}
									JOINT RightHandThumb1
									{
										OFFSET -1.11566 -1.85944 -0.74377
										CHANNELS 3 Yrotation Xrotation Zrotation
										End Site
										{
											OFFSET -2.69412 -0.72189 0.00000
										}
									}
								}
							}
						}
					}
					JOINT LeftShoulder
					{
						OFFSET 1.28113 -2.13521 6.91810
						CHANNELS 3 Xrotation Yrotation Zrotation
						JOINT LeftArm
						{
							OFFSET 6.36294 0.00000 0.00000
							CHANNELS 3 Xrotation Yrotation Zrotation
							JOINT LeftForeArm
							{
								OFFSET 10.12221 0.00000 0.00000
								CHANNELS 3 Xrotation Yrotation Zrotation
								JOINT LeftHand
								{
									OFFSET 10.76713 0.00000 0.00000
									CHANNELS 3 Xrotation Yrotation Zrotation
									JOINT LeftHandEnd
									{
										OFFSET 2.78915 0.00000 0.00000
										CHANNELS 3 Xrotation Yrotation Zrotation
										End Site
										{
											OFFSET 2.78915 0.00000 0.00000
										}
									}
									JOINT LeftHandThumb1
									{
										OFFSET 1.11566 -1.85944 -0.74377
										CHANNELS 3 Yrotation Xrotation Zrotation
										End Site
										{
											OFFSET 2.69412 -0.72189 0.00000
										}
									}
								}
							}
						}
					}
				}
			}
		}
	}
	JOINT RightUpLeg
	{
		OFFSET -3.80068 0.00000 -1.11031
		CHANNELS 3 Xrotation Yrotation Zrotation
		JOINT RightLeg
		{
			OFFSET 0.00001 0.00000 -17.00167
			CHANNELS 3 Xrotation Yrotation Zrotation
			JOINT RightFoot
			{
				OFFSET 0.00001 0.00000 -17.96841
				CHANNELS 3 Xrotation Yrotation Zrotation
				JOINT RightToeBase
				{
					OFFSET 0.00000 -5.07501 -1.84715
					CHANNELS 3 Xrotation Yrotation Zrotation
					End Site
					{
						OFFSET 0.00000 -3.07471 -0.00000
					}
				}
			}
		}
	}
	JOINT LeftUpLeg
	{
		OFFSET 3.80068 0.00000 -1.11031
		CHANNELS 3 Xrotation Yrotation Zrotation
		JOINT LeftLeg
		{
			OFFSET 0.00001 0.00000 -17.00167
			CHANNELS 3 Xrotation Yrotation Zrotation
			JOINT LeftFoot
			{
				OFFSET 0.00001 0.00000 -17.96841
				CHANNELS 3 Xrotation Yrotation Zrotation
				JOINT LeftToeBase
				{
					OFFSET 0.00000 -5.07501 -1.84715
					CHANNELS 3 Xrotation Yrotation Zrotation
					End Site
					{
						OFFSET 0.00000 -3.07471 -0.00000
					}
				}
			}
		}
	}
}
MOTION
Frames: 13
Frame Time: 0.008342
 9.0737 23.2911 34.0637 11.2345 -0.8533 -2.6476 19.6276 -0.9779 1.8975 9.9052 -0.0053 0.0532 9.4313 2.4277 -4.6872 1.5615 0.2702 -1.6186 -9.5530 -9.6324 -2.5832 -6.1774 3.9497 7.4489 1.4427 -9.6909 20.4111 22.4037 -47.7148 38.4147 0.0000 0.0000 20.3175 -41.3365 -12.0916 -6.4290 -0.0000 -0.0000 -0.0000 -0.0000 0.0000 -0.0000 1.0484 5.8517 -23.4494 -6.5298 50.9696 -22.1831 -0.0000 -0.0000 -9.8465 -37.4251 15.5423 18.4733 0.0000 -0.0000 -0.0000 -0.0000 -0.0000 0.0000 -45.8407 -2.8535 -3.4692 56.2614 0.0000 0.0000 -20.9726 0.8697 -18.8817 -2.0775 0.0000 -0.0000 -48.1943 4.7024 -2.8233 52.1265 0.0000 0.0000 -21.3403 20.5794 10.3122 5.4692 0.0000 0.0000
 9.0765 23.3156 34.0088 11.2909 -0.9012 -2.7123 19.7452 -0.9359 1.8954 9.9754 0.0166 0.0548 9.4667 2.4480 -4.6969 1.5562 0.2813 -1.6286 -9.7095 -9.6297 -2.5990 -6.1575 3.9973 7.4751 1.3341 -9.7332 20.4824 22.2979 -47.7070 38.4357 0.0000 0.0000 20.3237 -41.3925 -11.9738 -6.4636 -0.0000 -0.0000 -0.0000 -0.0000 0.0000 0.0000 0.9839 5.7978 -23.4909 -6.7005 50.8990 -22.1776 -0.0000 -0.0000 -9.8138 -37.4981 15.5385 18.5182 0.0000 0.0000 -0.0000 0.0000 0.0000 0.0000 -46.1588 -2.8538 -3.4159 56.6367 0.0000 0.0000 -21.0699 0.8638 -18.8771 -2.1165 0.0000 -0.0000 -48.4917 4.6960 -2.7187 52.4712 0.0000 0.0000 -21.4644 20.5878 10.3238 5.4735 0.0000 0.0000
 9.0788 23.3395 33.9551 11.3448 -0.9454 -2.7654 19.8603 -0.8979 1.8947 10.0419 0.0368 0.0570 9.4989 2.4555 -4.6932 1.5510 0.2880 -1.6306 -9.8517 -9.5978 -2.6103 -6.1411 4.0421 7.4822 1.2575 -9.7656 20.5459 22.1482 -47.6960 38.4438 0.0000 0.0000 20.3037 -41.4463 -11.8568 -6.4968 -0.0000 0.0000 0.0000 -0.0000 0.0000 -0.0000 0.9138 5.7479 -23.5530 -6.8345 50.8349 -22.2040 -0.0000 -0.0000 -9.7681 -37.5784 15.5363 18.5614 -0.0000 -0.0000 -0.0000 0.0000 0.0000 0.0000 -46.4667 -2.8508 -3.3733 57.0013 0.0000 0.0000 -21.1644 0.8666 -18.8716 -2.1507 0.0000 -0.0000 -48.7816 4.6940 -2.6255 52.8079 0.0000 0.0000 -21.5828 20.5959 10.3348 5.4834 0.0000 0.0000
 9.0804 23.3627 33.9026 11.3970 -0.9856 -2.8079 19.9691 -0.8630 1.8966 10.1085 0.0547 0.0599 9.5267 2.4471 -4.6744 1.5464 0.2910 -1.6238 -9.9818 -9.5350 -2.6154 -6.1266 4.0823 7.4688 1.2097 -9.7855 20.5979 21.9543 -47.6849 38.4364 0.0000 0.0000 20.2605 -41.4957 -11.7443 -6.5292 -0.0000 -0.0000 -0.0000 0.0000 -0.0000 -0.0000 0.8336 5.7078 -23.6409 -6.9353 50.7765 -22.2514 -0.0000 -0.0000 -9.7110 -37.6614 15.5370 18.6021 0.0000 0.0000 0.0000 -0.0000 -0.0000 0.0000 -46.7640 -2.8452 -3.3417 57.3541 0.0000 0.0000 -21.2567 0.8779 -18.8660 -2.1782 0.0000 -0.0000 -49.0643 4.6959 -2.5446 53.1364 0.0000 0.0000 -21.6967 20.6030 10.3462 5.5006 0.0000 0.0000
 9.0814 23.3852 33.8514 11.4484 -1.0210 -2.8406 20.0718 -0.8323 1.8996 10.1713 0.0698 0.0635 9.5537 2.4242 -4.6387 1.5418 0.2898 -1.6077 -10.0998 -9.4426 -2.6140 -6.1147 4.1157 7.4354 1.1947 -9.7889 20.6368 21.7150 -47.6725 38.4161 0.0000 0.0000 20.1971 -41.5434 -11.6377 -6.5596 -0.0000 0.0000 -0.0000 0.0000 -0.0000 0.0000 0.7490 5.6798 -23.7574 -6.9996 50.7174 -22.3247 -0.0000 -0.0000 -9.6408 -37.7514 15.5406 18.6386 0.0000 0.0000 0.0000 -0.0000 -0.0000 0.0000 -47.0514 -2.8371 -3.3219 57.6946 0.0000 0.0000 -21.3474 0.8964 -18.8602 -2.1983 0.0000 -0.0000 -49.3407 4.7020 -2.4781 53.4568 0.0000 0.0000 -21.8071 20.6085 10.3592 5.5265 0.0000 0.0000
 9.0818 23.4068 33.8016 11.4995 -1.0512 -2.8654 20.1666 -0.8056 1.9048 10.2318 0.0820 0.0675 9.5793 2.3882 -4.5878 1.5383 0.2855 -1.5837 -10.2078 -9.3268 -2.6056 -6.1039 4.1418 7.3845 1.2103 -9.7747 20.6646 21.4352 -47.6599 38.3841 0.0000 0.0000 20.1180 -41.5904 -11.5379 -6.5850 0.0000 0.0000 -0.0000 0.0000 0.0000 -0.0000 0.6580 5.6677 -23.9001 -7.0291 50.6543 -22.4172 -0.0000 -0.0000 -9.5612 -37.8470 15.5482 18.6740 0.0000 -0.0000 -0.0000 0.0000 -0.0000 0.0000 -47.3288 -2.8277 -3.3134 58.0221 0.0000 0.0000 -21.4366 0.9199 -18.8547 -2.2114 0.0000 -0.0000 -49.6109 4.7114 -2.4264 53.7694 0.0000 0.0000 -21.9151 20.6116 10.3751 5.5611 0.0000 0.0000
 9.0817 23.4275 33.7533 11.5502 -1.0761 -2.8842 20.2533 -0.7827 1.9125 10.2898 0.0909 0.0722 9.6055 2.3427 -4.5238 1.5351 0.2777 -1.5525 -10.3080 -9.1944 -2.5941 -6.0945 4.1606 7.3225 1.2490 -9.7472 20.6788 21.1255 -47.6454 38.3410 0.0000 0.0000 20.0312 -41.6370 -11.4475 -6.6081 -0.0000 0.0000 0.0000 -0.0000 0.0000 -0.0000 0.5635 5.6679 -24.0657 -7.0297 50.5900 -22.5265 -0.0000 -0.0000 -9.4722 -37.9442 15.5568 18.7017 0.0000 -0.0000 0.0000 -0.0000 0.0000 0.0000 -47.5962 -2.8174 -3.3156 58.3368 0.0000 0.0000 -21.5247 0.9457 -18.8490 -2.2186 0.0000 -0.0000 -49.8747 4.7243 -2.3903 54.0745 0.0000 0.0000 -22.0222 20.6114 10.3957 5.6043 0.0000 0.0000
 9.0811 23.4472 33.7064 11.6004 -1.0958 -2.8988 20.3331 -0.7643 1.9229 10.3448 0.0973 0.0776 9.6325 2.2913 -4.4503 1.5323 0.2677 -1.5171 -10.4027 -9.0562 -2.5808 -6.0856 4.1737 7.2552 1.3074 -9.7087 20.6827 20.7945 -47.6290 38.2892 0.0000 0.0000 19.9426 -41.6836 -11.3663 -6.6281 -0.0000 -0.0000 0.0000 0.0000 -0.0000 -0.0000 0.4677 5.6788 -24.2457 -7.0040 50.5235 -22.6514 -0.0000 -0.0000 -9.3762 -38.0418 15.5661 18.7230 -0.0000 -0.0000 0.0000 -0.0000 -0.0000 -0.0000 -47.8536 -2.8068 -3.3278 58.6391 0.0000 0.0000 -21.6116 0.9710 -18.8426 -2.2219 0.0000 -0.0000 -50.1317 4.7405 -2.3697 54.3723 0.0000 0.0000 -22.1292 20.6068 10.4226 5.6544 0.0000 0.0000
 9.0800 23.4651 33.6611 11.6405 -1.1101 -2.9116 20.4084 -0.7504 1.9378 10.4121 0.0972 0.0807 9.6522 2.2464 -4.3765 1.5304 0.2526 -1.4727 -10.4932 -8.9219 -2.5684 -6.0781 4.1824 7.1881 1.3709 -9.6645 20.6813 20.4550 -47.6166 38.2200 0.0000 0.0000 19.8626 -41.7271 -11.2935 -6.6460 0.0000 0.0000 0.0000 -0.0000 0.0000 -0.0000 0.3641 5.6959 -24.4380 -6.9737 50.4662 -22.7594 -0.0000 -0.0000 -9.2854 -38.1281 15.5732 18.7407 0.0000 -0.0000 0.0000 -0.0000 -0.0000 0.0000 -48.0896 -2.7965 -3.3483 58.9286 0.0000 0.0000 -21.6987 0.9930 -18.8346 -2.2233 0.0000 -0.0000 -50.3703 4.7591 -2.3632 54.6629 0.0000 0.0000 -22.2382 20.5978 10.4559 5.7095 0.0000 0.0000
 9.0786 23.4824 33.6171 11.6851 -1.1202 -2.9219 20.4789 -0.7403 1.9553 10.4641 0.0999 0.0872 9.6803 2.1933 -4.2988 1.5278 0.2415 -1.4338 -10.5826 -8.8008 -2.5593 -6.0702 4.1893 7.1274 1.4430 -9.6176 20.6718 20.1217 -47.5970 38.1565 0.0000 0.0000 19.7880 -41.7715 -11.2281 -6.6608 -0.0000 -0.0000 0.0000 -0.0000 0.0000 -0.0000 0.2687 5.7172 -24.6246 -6.9193 50.4047 -22.8942 -0.0000 -0.0000 -9.1887 -38.2150 15.5776 18.7510 0.0000 -0.0000 0.0000 -0.0000 0.0000 0.0000 -48.3231 -2.7858 -3.3763 59.2084 0.0000 0.0000 -21.7840 1.0098 -18.8252 -2.2252 0.0000 -0.0000 -50.6086 4.7813 -2.3708 54.9472 0.0000 0.0000 -22.3468 20.5835 10.4967 5.7671 0.0000 0.0000
 9.0770 23.4986 33.5743 11.7292 -1.1267 -2.9310 20.5450 -0.7335 1.9762 10.5123 0.0989 0.0944 9.7094 2.1469 -4.2258 1.5252 0.2299 -1.3968 -10.6717 -8.6998 -2.5544 -6.0621 4.1961 7.0769 1.5129 -9.5738 20.6594 19.8059 -47.5732 38.0930 0.0000 0.0000 19.7257 -41.8144 -11.1685 -6.6751 0.0000 -0.0000 -0.0000 -0.0000 -0.0000 0.0000 0.1802 5.7371 -24.8022 -6.8580 50.3469 -23.0339 -0.0000 -0.0000 -9.0949 -38.2961 15.5770 18.7556 0.0000 -0.0000 0.0000 0.0000 0.0000 0.0000 -48.5487 -2.7750 -3.4101 59.4786 0.0000 0.0000 -21.8680 1.0203 -18.8138 -2.2289 0.0000 -0.0000 -50.8403 4.8067 -2.3902 55.2249 0.0000 0.0000 -22.4555 20.5641 10.5445 5.8245 0.0000 0.0000
 9.0753 23.5137 33.5328 11.7699 -1.1299 -2.9385 20.6093 -0.7311 2.0008 10.5594 0.0975 0.1015 9.7373 2.1065 -4.1604 1.5228 0.2196 -1.3635 -10.7616 -8.6226 -2.5555 -6.0538 4.2042 7.0402 1.5703 -9.5362 20.6469 19.5203 -47.5483 38.0310 0.0000 0.0000 19.6762 -41.8528 -11.1136 -6.6880 0.0000 0.0000 -0.0000 0.0000 -0.0000 -0.0000 0.0968 5.7543 -24.9650 -6.7963 50.2953 -23.1705 -0.0000 -0.0000 -9.0073 -38.3677 15.5718 18.7554 0.0000 -0.0000 -0.0000 -0.0000 -0.0000 -0.0000 -48.7634 -2.7635 -3.4486 59.7401 0.0000 0.0000 -21.9510 1.0241 -18.7998 -2.2355 0.0000 -0.0000 -51.0623 4.8351 -2.4193 55.4958 0.0000 0.0000 -22.5639 20.5401 10.5980 5.8788 0.0000 0.0000
 9.0734 23.5278 33.4924 11.8070 -1.1305 -2.9441 20.6729 -0.7320 2.0284 10.6046 0.0946 0.1088 9.7638 2.0729 -4.1055 1.5200 0.2104 -1.3342 -10.8517 -8.5689 -2.5605 -6.0449 4.2142 7.0150 1.6116 -9.5058 20.6360 19.2695 -47.5238 37.9710 0.0000 0.0000 19.6401 -41.8846 -11.0621 -6.7031 -0.0000 -0.0000 0.0000 -0.0000 0.0000 -0.0000 0.0240 5.7662 -25.1110 -6.7434 50.2504 -23.2987 -0.0000 -0.0000 -8.9295 -38.4297 15.5610 18.7526 0.0000 -0.0000 0.0000 0.0000 0.0000 -0.0000 -48.9679 -2.7512 -3.4901 59.9938 0.0000 0.0000 -22.0330 1.0222 -18.7839 -2.2453 0.0000 -0.0000 -51.2744 4.8665 -2.4559 55.7594 0.0000 0.0000 -22.6715 20.5118 10.6563 5.9282 0.0000 0.0000
